<svg width="47" height="46" viewBox="0 0 47 46" fill="none" xmlns="http://www.w3.org/2000/svg">
<g clip-path="url(#clip0_1_1217)">
<path d="M21.3435 16.8914H18.5669V19.668H21.3435C22.1103 19.668 22.7319 19.0464 22.7319 18.2797C22.7319 17.513 22.1103 16.8914 21.3435 16.8914Z" fill="#FFB35C"/>
<path d="M21.3435 26.6097H18.5669V29.3863H21.3435C22.1103 29.3863 22.7319 28.7647 22.7319 27.998C22.7319 27.2313 22.1103 26.6097 21.3435 26.6097Z" fill="#FFB35C"/>
<path d="M19.9551 27.998C19.9551 27.2313 19.3335 26.6097 18.5668 26.6097H17.78V19.668H18.5668C19.3335 19.668 19.9551 19.0464 19.9551 18.2797C19.9551 17.5129 19.3335 16.8913 18.5668 16.8913H17.78V13.328C17.78 12.5612 17.1584 11.9396 16.3917 11.9396C15.625 11.9396 15.0034 12.5612 15.0034 13.328V16.8913H8.06173V13.328C8.06173 12.5612 7.44013 11.9396 6.6734 11.9396C5.90667 11.9396 5.28507 12.5612 5.28507 13.328V16.8913H1.72169C0.95496 16.8913 0.333359 17.5129 0.333359 18.2797C0.333359 19.0464 0.95496 19.668 1.72169 19.668H5.28507V26.6097H1.72169C0.95496 26.6097 0.333359 27.2313 0.333359 27.998C0.333359 28.7647 0.95496 29.3863 1.72169 29.3863H5.28507V32.9497C5.28507 33.7164 5.90667 34.338 6.6734 34.338C7.44013 34.338 8.06173 33.7164 8.06173 32.9497V29.3863H15.0034V32.9497C15.0034 33.7164 15.625 34.338 16.3917 34.338C17.1584 34.338 17.78 33.7164 17.78 32.9497V29.3863H18.5668C19.3335 29.3863 19.9551 28.7647 19.9551 27.998ZM15.0034 26.6097H8.06173V19.668H15.0034V26.6097Z" fill="#FFAC37"/>
<path d="M42.1684 37.67V4.16499C42.1684 1.86471 40.3037 0 38.0034 0H25.5084C23.2081 0 21.3434 1.86471 21.3434 4.16499C21.3434 6.46527 23.2081 8.32998 25.5084 8.32998V37.67C23.2081 37.67 21.3434 39.5347 21.3434 41.835C21.3434 44.1353 23.2081 46 25.5084 46H42.1684C44.4687 46 46.3334 44.1353 46.3334 41.835C46.3334 39.5347 44.4687 37.67 42.1684 37.67Z" fill="#FFAC37"/>
<path d="M36.6149 40.5855V4.3038C36.6149 3.53707 35.9933 2.91547 35.2265 2.91547H25.5082C24.7415 2.91547 24.1199 3.53707 24.1199 4.3038C24.1199 5.07052 24.7415 5.69213 25.5082 5.69213H28.2849V40.5855H25.5082C24.7415 40.5855 24.1199 41.2071 24.1199 41.9738C24.1199 42.7405 24.7415 43.3621 25.5082 43.3621H39.3915C37.8581 43.3621 36.6149 42.119 36.6149 40.5855Z" fill="#FFBE40"/>
</g>
<defs>
<clipPath id="clip0_1_1217">
<rect width="46" height="46" fill="white" transform="translate(0.333351)"/>
</clipPath>
</defs>
</svg>
